# Blender v3.1.2 OBJ File: 'Tool_Box.blend'
# www.blender.org
mtllib Tool_Box.mtl
o Plane
v 0.213633 0.000000 0.569009
v 0.780909 0.000000 0.569009
v 0.213633 0.000000 0.238847
v 0.780909 0.000000 0.238847
v 0.213633 0.259018 0.238847
v 0.213633 0.259018 0.569009
v 0.780909 0.259018 0.569009
v 0.780909 0.259018 0.238847
v 0.213633 0.129509 0.238847
v 0.780909 0.129509 0.238847
v 0.780909 0.129509 0.569009
v 0.213633 0.129509 0.569009
v 0.223885 0.251199 0.569009
v 0.771856 0.251199 0.569009
v 0.771856 0.137328 0.569009
v 0.223885 0.137328 0.569009
v 0.225842 0.006805 0.569009
v 0.771599 0.006805 0.569009
v 0.225842 0.122704 0.569009
v 0.771599 0.122704 0.569009
v 0.213633 0.240516 0.238847
v 0.780909 0.240516 0.569009
v 0.780909 0.240516 0.238847
v 0.213633 0.240516 0.569009
v 0.771856 0.234931 0.569009
v 0.223885 0.234931 0.569009
v 0.780909 0.110258 0.238847
v 0.213633 0.110258 0.569009
v 0.213633 0.110258 0.238847
v 0.780909 0.110258 0.569009
v 0.225842 0.105476 0.569009
v 0.771599 0.105476 0.569009
v 0.213633 0.116675 0.238847
v 0.213633 0.123092 0.238847
v 0.780909 0.116675 0.569009
v 0.780909 0.123092 0.569009
v 0.771599 0.111219 0.569009
v 0.771599 0.116961 0.569009
v 0.780909 0.123092 0.238847
v 0.780909 0.116675 0.238847
v 0.213633 0.123092 0.569009
v 0.213633 0.116675 0.569009
v 0.225842 0.116961 0.569009
v 0.225842 0.111219 0.569009
v 0.223885 0.234931 0.569009
v 0.223885 0.137328 0.569009
v 0.771856 0.137328 0.569009
v 0.771856 0.234931 0.569009
v 0.223885 0.251199 0.574367
v 0.771856 0.251199 0.574367
v 0.771856 0.234931 0.574367
v 0.223885 0.234931 0.574367
v 0.223885 0.234931 0.574367
v 0.223885 0.137328 0.574367
v 0.771856 0.137328 0.574367
v 0.771856 0.234931 0.574367
v 0.225842 0.006805 0.574847
v 0.771599 0.006805 0.574847
v 0.225842 0.105476 0.574847
v 0.771599 0.105476 0.574847
v 0.225842 0.105476 0.569009
v 0.771599 0.116961 0.569009
v 0.771599 0.122704 0.569009
v 0.225842 0.122704 0.569009
v 0.225842 0.111219 0.569009
v 0.771599 0.105476 0.569009
v 0.771599 0.111219 0.569009
v 0.225842 0.116961 0.569009
v 0.771599 0.116961 0.569009
v 0.771599 0.122704 0.569009
v 0.225842 0.122704 0.569009
v 0.225842 0.111219 0.569009
v 0.225842 0.105476 0.569009
v 0.771599 0.105476 0.569009
v 0.771599 0.111219 0.569009
v 0.225842 0.116961 0.569009
v 0.771599 0.116961 0.573839
v 0.771599 0.122704 0.573839
v 0.225842 0.122704 0.573839
v 0.225842 0.111219 0.573839
v 0.225842 0.105476 0.573839
v 0.771599 0.105476 0.573839
v 0.771599 0.111219 0.573839
v 0.225842 0.116961 0.573839
vt 0.000000 0.000000
vt 1.000000 0.000000
vt 1.000000 1.000000
vt 0.000000 1.000000
vt 0.000000 0.000000
vt 0.000000 1.000000
vt 1.000000 1.000000
vt 1.000000 0.000000
vt 1.000000 1.000000
vt 0.000000 1.000000
vt 0.000000 0.000000
vt 0.000000 0.000000
vt 1.000000 0.000000
vt 1.000000 0.000000
vt 1.000000 0.000000
vt 0.000000 0.000000
vt 0.000000 1.000000
vt 0.000000 1.000000
vt 0.000000 0.000000
vt 1.000000 0.000000
vt 1.000000 1.000000
vt 1.000000 1.000000
vt 0.000000 0.000000
vt 0.000000 0.000000
vt 0.000000 0.000000
vt 1.000000 0.000000
vt 0.000000 0.000000
vt 1.000000 0.000000
vt 0.000000 0.000000
vt 1.000000 0.000000
vt 0.000000 0.000000
vt 1.000000 0.000000
vt 1.000000 0.000000
vt 0.000000 0.000000
vt 1.000000 0.000000
vt 1.000000 0.000000
vt 1.000000 0.000000
vt 1.000000 1.000000
vt 0.000000 1.000000
vt 0.000000 0.000000
vt 0.000000 0.000000
vt 0.000000 0.000000
vt 1.000000 0.000000
vt 1.000000 0.000000
vt 1.000000 1.000000
vt 0.000000 1.000000
vt 0.000000 0.000000
vt 1.000000 0.000000
vt 0.000000 0.000000
vt 0.000000 0.000000
vt 1.000000 0.000000
vt 1.000000 0.000000
vt 0.000000 0.000000
vt 0.000000 0.000000
vt 1.000000 0.000000
vt 1.000000 0.000000
vt 0.000000 0.000000
vt 0.000000 0.000000
vt 1.000000 0.000000
vt 1.000000 0.000000
vt 0.000000 0.000000
vt 0.000000 0.000000
vt 0.000000 0.000000
vt 0.000000 0.000000
vt 0.000000 0.000000
vt 0.000000 0.000000
vt 1.000000 0.000000
vt 1.000000 0.000000
vt 1.000000 0.000000
vt 0.000000 0.000000
vt 1.000000 0.000000
vt 1.000000 0.000000
vt 0.000000 0.000000
vt 0.000000 0.000000
vt 1.000000 0.000000
vt 1.000000 0.000000
vt 0.000000 0.000000
vt 0.000000 0.000000
vt 1.000000 0.000000
vt 0.000000 0.000000
vt 0.000000 0.000000
vt 0.000000 0.000000
vt 0.000000 0.000000
vt 0.000000 0.000000
vt 1.000000 0.000000
vt 1.000000 0.000000
vt 1.000000 0.000000
vt 0.000000 0.000000
vn 0.0000 1.0000 0.0000
vn 0.0000 -1.0000 0.0000
vn 0.0000 0.0000 1.0000
vn 0.0000 0.0000 -1.0000
vn -1.0000 0.0000 0.0000
vn 1.0000 0.0000 0.0000
usemtl Material.004
s off
f 1/1/1 2/2/1 4/3/1 3/4/1
f 6/5/2 5/6/2 8/7/2 7/8/2
f 23/9/3 8/7/3 5/6/3 21/10/3
f 12/11/4 16/12/4 15/13/4 11/14/4
f 22/15/5 7/8/5 8/7/5 23/9/5
f 21/10/6 5/6/6 6/5/6 24/16/6
f 34/17/6 9/18/6 12/11/6 41/19/6
f 36/20/5 11/14/5 10/21/5 39/22/5
f 28/23/4 31/24/4 17/25/4 1/1/4
f 39/22/3 10/21/3 9/18/3 34/17/3
f 7/8/4 14/26/4 13/27/4 6/5/4
f 22/15/4 25/28/4 14/26/4 7/8/4
f 24/16/4 26/29/4 16/12/4 12/11/4
f 11/14/4 20/30/4 19/31/4 12/11/4
f 36/20/4 38/32/4 20/30/4 11/14/4
f 1/1/4 17/25/4 18/33/4 2/2/4
f 6/5/4 13/27/4 26/29/4 24/16/4
f 11/14/4 15/13/4 25/28/4 22/15/4
f 16/12/3 46/34/3 47/35/3 15/13/3
f 9/18/6 21/10/6 24/16/6 12/11/6
f 11/14/5 22/15/5 23/9/5 10/21/5
f 10/21/3 23/9/3 21/10/3 9/18/3
f 2/2/4 18/33/4 32/36/4 30/37/4
f 4/3/3 27/38/3 29/39/3 3/4/3
f 42/40/4 44/41/4 31/24/4 28/23/4
f 2/2/5 30/37/5 27/38/5 4/3/5
f 3/4/6 29/39/6 28/23/6 1/1/6
f 12/11/4 19/31/4 43/42/4 41/19/4
f 41/19/4 43/42/4 44/41/4 42/40/4
f 30/37/4 32/36/4 37/43/4 35/44/4
f 35/44/4 37/43/4 38/32/4 36/20/4
f 27/38/3 40/45/3 33/46/3 29/39/3
f 40/45/3 39/22/3 34/17/3 33/46/3
f 30/37/5 35/44/5 40/45/5 27/38/5
f 35/44/5 36/20/5 39/22/5 40/45/5
f 29/39/6 33/46/6 42/40/6 28/23/6
f 33/46/6 34/17/6 41/19/6 42/40/6
f 26/29/3 45/47/3 46/34/3 16/12/3
f 25/28/3 48/48/3 45/47/3 26/29/3
f 15/13/3 47/35/3 48/48/3 25/28/3
f 52/49/4 49/50/4 50/51/4 51/52/4
f 54/53/4 53/54/4 56/55/4 55/56/4
f 48/48/2 56/55/2 53/54/2 45/47/2
f 26/29/1 52/49/1 51/52/1 25/28/1
f 57/57/4 59/58/4 60/59/4 58/60/4
f 32/61/2 60/62/2 59/58/2 31/24/2
f 43/42/3 19/31/3 64/63/3 68/64/3
f 32/61/3 31/24/3 61/65/3 66/66/3
f 37/43/3 32/36/3 66/67/3 67/68/3
f 19/31/3 20/30/3 63/69/3 64/63/3
f 44/41/3 43/42/3 68/64/3 65/70/3
f 38/32/3 37/43/3 67/68/3 62/71/3
f 20/30/3 38/32/3 62/71/3 63/69/3
f 31/24/3 44/41/3 65/70/3 61/65/3
f 64/63/3 63/69/3 70/72/3 71/73/3
f 68/64/3 64/63/3 71/73/3 76/74/3
f 67/68/3 66/67/3 74/75/3 75/76/3
f 61/65/3 65/70/3 72/77/3 73/78/3
f 63/69/3 62/71/3 69/79/3 70/72/3
f 65/70/3 68/64/3 76/74/3 72/77/3
f 62/71/3 67/68/3 75/76/3 69/79/3
f 66/66/3 61/65/3 73/78/3 74/80/3
f 81/81/4 80/82/4 84/83/4 79/84/4 78/85/4 77/86/4 83/87/4 82/88/4
f 74/80/1 73/78/1 81/81/1 82/88/1
o Plane.002
v 0.226100 0.251199 0.574367
v 0.771856 0.251199 0.574367
v 0.226100 0.233971 0.574367
v 0.771856 0.233971 0.574367
v 0.771856 0.236504 0.582194
v 0.771856 0.251199 0.574632
v 0.226100 0.251199 0.574632
v 0.226100 0.236504 0.582194
v 0.771856 0.239713 0.574367
v 0.771856 0.245504 0.574297
v 0.226100 0.245504 0.574297
v 0.226100 0.239713 0.574367
v 0.771856 0.242001 0.581097
v 0.771856 0.246973 0.579094
v 0.226100 0.246973 0.579094
v 0.226100 0.242001 0.581097
vt 1.000000 0.000000
vt 0.000000 0.000000
vt 0.000000 0.000000
vt 1.000000 0.000000
vt 0.000000 0.000000
vt 1.000000 0.000000
vt 1.000000 0.000000
vt 0.000000 0.000000
vt 0.000000 0.000000
vt 0.000000 0.000000
vt 0.000000 0.000000
vt 1.000000 0.000000
vt 1.000000 0.000000
vt 0.000000 0.000000
vt 1.000000 0.000000
vt 1.000000 0.000000
vn 0.7099 0.7044 0.0000
vn -0.7099 0.7044 0.0000
vn -0.6325 0.7195 0.2867
vn 0.6325 0.7195 0.2867
vn -0.6621 0.4218 0.6194
vn 0.6621 0.4218 0.6194
vn 1.0000 0.0000 0.0000
vn -1.0000 -0.0000 0.0000
vn -0.6251 -0.7427 0.2403
vn -0.5837 -0.4108 0.7004
vn -0.6868 0.2078 0.6965
vn 0.6251 -0.7427 0.2403
vn 0.5837 -0.4108 0.7004
vn 0.6868 0.2078 0.6965
usemtl Material.005
s 1
f 86/89/7 85/90/8 91/91/9 90/92/10
f 99/93/11 98/94/12 90/92/10 91/91/9
f 94/95/13 86/89/7 90/92/10 98/94/12
f 96/96/14 87/97/15 92/98/16 100/99/17
f 87/97/15 88/100/18 89/101/19 92/98/16
f 85/90/8 95/102/14 99/93/11 91/91/9
f 95/102/14 96/96/14 100/99/17 99/93/11
f 88/100/18 93/103/13 97/104/20 89/101/19
f 93/103/13 94/95/13 98/94/12 97/104/20
f 92/98/16 89/101/19 97/104/20 100/99/17
f 100/99/17 97/104/20 98/94/12 99/93/11
o Plane.003
v 0.225842 0.122704 0.573839
v 0.771599 0.122704 0.573839
v 0.225842 0.105476 0.573839
v 0.771599 0.105476 0.573839
v 0.771599 0.108009 0.581666
v 0.771599 0.122704 0.574104
v 0.225842 0.122704 0.574104
v 0.225842 0.108009 0.581666
v 0.771599 0.111219 0.573839
v 0.771599 0.117010 0.573769
v 0.225842 0.117010 0.573769
v 0.225842 0.111219 0.573839
v 0.771599 0.113506 0.580569
v 0.771599 0.118479 0.578566
v 0.225842 0.118479 0.578566
v 0.225842 0.113506 0.580569
v 0.771599 0.117010 0.573769
v 0.771599 0.122704 0.573839
v 0.225842 0.122704 0.573839
v 0.225842 0.111219 0.573839
v 0.225842 0.105476 0.573839
v 0.771599 0.105476 0.573839
v 0.771599 0.111219 0.573839
v 0.225842 0.117010 0.573769
vt 1.000000 0.000000
vt 1.000000 0.000000
vt 0.000000 0.000000
vt 0.000000 0.000000
vt 0.000000 0.000000
vt 1.000000 0.000000
vt 1.000000 0.000000
vt 0.000000 0.000000
vt 0.000000 0.000000
vt 0.000000 0.000000
vt 0.000000 0.000000
vt 1.000000 0.000000
vt 1.000000 0.000000
vt 0.000000 0.000000
vt 1.000000 0.000000
vt 1.000000 0.000000
vt 1.000000 0.000000
vt 1.000000 0.000000
vt 0.000000 0.000000
vt 0.000000 0.000000
vt 1.000000 0.000000
vt 0.000000 0.000000
vt 0.000000 0.000000
vt 1.000000 0.000000
vn -0.4109 -0.4077 0.8154
vn -0.6325 -0.7195 -0.2867
vn 0.6325 -0.7195 -0.2867
vn 0.4109 -0.4077 0.8154
vn 0.6621 -0.4218 -0.6194
vn -0.6621 -0.4218 -0.6194
vn -0.7044 0.0000 0.7099
vn 0.7085 0.0000 0.7058
vn 0.6868 -0.2078 -0.6965
vn 0.5837 0.4108 -0.7004
vn 0.3813 0.4531 0.8058
vn -0.5837 0.4108 -0.7004
vn -0.3813 0.4531 0.8058
vn 0.7044 0.0000 0.7099
vn -0.6868 -0.2078 -0.6965
vn -0.7085 0.0000 0.7058
vn -0.0000 0.0000 1.0000
usemtl Material.006
s 1
f 102/105/21 106/106/22 107/107/23 101/108/24
f 115/109/25 107/107/23 106/106/22 114/110/26
f 110/111/27 114/110/26 106/106/22 102/105/21
f 112/112/28 116/113/29 108/114/30 103/115/31
f 103/115/31 108/114/30 105/116/32 104/117/33
f 101/108/24 107/107/23 115/109/25 111/118/34
f 111/118/34 115/109/25 116/113/29 112/112/28
f 104/117/33 105/116/32 113/119/35 109/120/36
f 109/120/36 113/119/35 114/110/26 110/111/27
f 108/114/30 116/113/29 113/119/35 105/116/32
f 116/113/29 115/109/25 114/110/26 113/119/35
f 109/120/36 110/111/27 117/121/37 123/122/37
f 112/112/28 103/115/31 121/123/37 120/124/37
f 110/111/27 102/105/21 118/125/37 117/121/37
f 101/108/24 111/118/34 124/126/37 119/127/37
f 103/115/31 104/117/33 122/128/37 121/123/37
f 104/117/33 109/120/36 123/122/37 122/128/37
f 102/105/21 101/108/24 119/127/37 118/125/37
f 111/118/34 112/112/28 120/124/37 124/126/37
f 118/125/37 119/127/37 124/126/37 120/124/37 121/123/37 122/128/37 123/122/37 117/121/37
o Plane.001
v 0.223885 0.251199 0.569009
v 0.771856 0.251199 0.569009
v 0.225842 0.006805 0.569009
v 0.771599 0.006805 0.569009
v 0.771856 0.234931 0.569009
v 0.223885 0.234931 0.569009
v 0.225842 0.105476 0.569009
v 0.771599 0.105476 0.569009
v 0.223885 0.234931 0.569009
v 0.223885 0.137328 0.569009
v 0.771856 0.137328 0.569009
v 0.771856 0.234931 0.569009
v 0.223885 0.251199 0.574367
v 0.771856 0.251199 0.574367
v 0.771856 0.234931 0.574367
v 0.223885 0.234931 0.574367
v 0.223885 0.234931 0.574367
v 0.223885 0.137328 0.574367
v 0.771856 0.137328 0.574367
v 0.771856 0.234931 0.574367
v 0.225842 0.006805 0.574847
v 0.771599 0.006805 0.574847
v 0.225842 0.105476 0.574847
v 0.771599 0.105476 0.574847
v 0.771599 0.116961 0.569009
v 0.771599 0.122704 0.569009
v 0.225842 0.122704 0.569009
v 0.225842 0.111219 0.569009
v 0.225842 0.105476 0.569009
v 0.771599 0.105476 0.569009
v 0.771599 0.111219 0.569009
v 0.225842 0.116961 0.569009
v 0.771599 0.116961 0.573839
v 0.771599 0.122704 0.573839
v 0.225842 0.122704 0.573839
v 0.225842 0.111219 0.573839
v 0.225842 0.105476 0.573839
v 0.771599 0.105476 0.573839
v 0.771599 0.111219 0.573839
v 0.225842 0.116961 0.573839
vt 1.000000 0.000000
vt 1.000000 0.000000
vt 1.000000 0.000000
vt 1.000000 0.000000
vt 0.000000 0.000000
vt 0.000000 0.000000
vt 1.000000 0.000000
vt 1.000000 0.000000
vt 0.000000 0.000000
vt 0.000000 0.000000
vt 0.000000 0.000000
vt 0.000000 0.000000
vt 0.000000 0.000000
vt 0.000000 0.000000
vt 0.000000 0.000000
vt 0.000000 0.000000
vt 1.000000 0.000000
vt 1.000000 0.000000
vt 1.000000 0.000000
vt 1.000000 0.000000
vt 1.000000 0.000000
vt 1.000000 0.000000
vt 0.000000 0.000000
vt 0.000000 0.000000
vt 0.000000 0.000000
vt 0.000000 0.000000
vt 0.000000 0.000000
vt 0.000000 0.000000
vt 1.000000 0.000000
vt 1.000000 0.000000
vt 1.000000 0.000000
vt 1.000000 0.000000
vt 0.000000 0.000000
vt 1.000000 0.000000
vt 1.000000 0.000000
vt 0.000000 0.000000
vt 1.000000 0.000000
vt 1.000000 0.000000
vt 0.000000 0.000000
vt 0.000000 0.000000
vn -1.0000 0.0000 0.0000
vn 0.0000 1.0000 0.0000
vn 1.0000 0.0000 0.0000
vn 0.0000 -1.0000 0.0000
usemtl Material.007
s off
f 129/129/38 139/130/38 138/131/38 126/132/38
f 127/133/39 145/134/39 146/135/39 128/136/39
f 133/137/40 141/138/40 142/139/40 134/140/40
f 125/141/40 137/142/40 140/143/40 130/144/40
f 134/140/39 142/139/39 143/145/39 135/146/39
f 126/132/41 138/131/41 137/142/41 125/141/41
f 135/146/38 143/145/38 144/147/38 136/148/38
f 128/136/38 146/135/38 148/149/38 132/150/38
f 131/151/40 147/152/40 145/134/40 127/133/40
f 152/153/40 156/154/40 164/155/40 160/156/40
f 149/157/38 155/158/38 163/159/38 157/160/38
f 151/161/41 150/162/41 158/163/41 159/164/41
f 156/154/40 151/161/40 159/164/40 164/155/40
f 155/158/38 154/165/38 162/166/38 163/159/38
f 153/167/40 152/153/40 160/156/40 161/168/40
f 150/162/38 149/157/38 157/160/38 158/163/38
